<svg xmlns="http://www.w3.org/2000/svg" xmlns:xlink="http://www.w3.org/1999/xlink" viewBox="0 0 393.8 301.9"><defs><path id="a" d="M0 0h393.8v301.9H0z"/></defs><clipPath id="b"><use xlink:href="#a" overflow="visible"/></clipPath><path d="M302 134.2H161.1v47h86c-12.8 40.8-51 70.5-96 70.5-55.6 0-100.7-45.1-100.7-100.7-.1-55.7 45-100.7 100.6-100.7 28 0 53.3 11.4 71.6 29.9l34.1-37.1C229.4 16.4 192.1-.1 151-.1 67.6-.1 0 67.5 0 150.9s67.6 151 151 151c73 0 137-51.9 151-120.8v-46.9zm0 0" clip-path="url(#b)"/><path d="M393.5 134.1h-28.8v-28.8H340v28.8h-28.8v24.7H340v28.8h24.7v-28.8h28.8v-24.7zm0 0"/></svg>