<svg xmlns="http://www.w3.org/2000/svg" xmlns:xlink="http://www.w3.org/1999/xlink" viewBox="0 0 612 792"><defs><path id="a" d="M109 245h393.8v301.9H109z"/></defs><clipPath id="b"><use xlink:href="#a" overflow="visible"/></clipPath><path d="M411 379.2H270.1v47h86c-12.8 40.8-51 70.5-96 70.5-55.6 0-100.7-45.1-100.7-100.7s45.1-100.7 100.7-100.7c28 0 53.3 11.4 71.6 29.9l34.1-37.1c-27.2-26.7-64.5-43.1-105.7-43.1-83.4 0-151 67.6-151 151s67.6 151 151 151c73 0 137-51.9 151-120.8v-47zm0 0" clip-path="url(#b)"/><path d="M502.5 379.1h-28.8v-28.8H449v28.8h-28.8v24.7H449v28.8h24.7v-28.8h28.8v-24.7zm0 0"/></svg>