<svg xmlns="http://www.w3.org/2000/svg" fill-rule="evenodd" height="100" viewBox="0 0 16933 4233" shape-rendering="geometricPrecision" text-rendering="geometricPrecision" image-rendering="optimizeQuality" clip-rule="evenodd" preserveAspectRatio="xMidYMid slice"><defs><style>.fil0{fill:#e5e9ed}.fil1,.fil2{fill:#00244d}.fil1{fill-rule:nonzero}</style></defs><g id="Слой_x0020_1"><g id="_628107952"><path d="M10350 986C4976 4377-3788 3548-6195 371c5085 3077 10584 3392 16545 615z" class="fil0"/><path d="M16329-2197C13078 1403 7071 4343 1964 4463c-4196 98-8524-2173-11023-5932 2571 2854 5355 5010 11188 5042 4969 28 10562-3163 14200-5770z" class="fil0"/><path d="M-2415 4058c2802 1487 6563 1756 9855 604 2926-1187 6976-3704 8731-5628C11178 2183 5349 6967-2415 4058z" class="fil0"/><path d="M3704 3011H1748v-37h1956zm11326 0h-2150v-37h2150z" class="fil1"/><path d="M2743 1740c25 2 45 4 59 5 15 1 27 2 37 2 38 0 71-5 99-15 23-23 34-56 34-101 0-52-13-90-38-115-26-24-66-37-119-37h-72v261zm-923 176c23 44 53 79 89 104s75 37 117 37c56 0 102-18 138-53 35-36 53-82 53-138 0-89-79-167-238-231-1-1-2-1-3-1-84-35-144-75-180-119-36-43-53-99-53-166 0-92 30-168 92-226 61-59 140-89 238-89 72 0 136 17 191 49 55 33 95 80 122 140l-70 47c-17-50-44-88-79-115-35-26-76-40-124-40-52 0-93 17-126 50s-49 76-49 130c0 42 13 78 40 107 27 30 78 60 152 92 116 50 193 98 231 144 37 46 56 105 56 177 0 95-33 174-99 236s-149 92-250 92c-73 0-136-14-189-42-53-27-99-71-138-130l79-55zm1468-369c0-51 8-85 25-101 16-16 52-24 105-24h331v60h-237c-28 0-47 5-56 12-9 8-14 23-14 44v175h252v68h-252v222c0 21 5 35 15 43 9 8 31 11 66 11h234v60h-364c-39 0-66-8-82-24-15-16-23-50-23-101v-445zm788 570h-154V982h154v793l285-353h87l-239 294 313 401h-193l-253-325v325zm640 0v-635h-148v-60h450v60h-148v635h-154zm614 0h-155v-695h279c87 0 153 17 198 49 45 33 67 81 67 143 0 45-13 83-40 112s-65 46-112 52l180 339h-185l-166-347c56-1 97-13 123-35 27-22 39-57 39-105 0-51-12-89-38-114s-65-37-119-37h-71v638zm-2302-349c-52 23-112 34-181 34-17 0-42-1-76-4-13-2-22-3-28-3v325h-154v-698h279c87 0 152 17 198 49 44 33 67 81 67 144 0 45-14 83-41 112-17 18-38 32-64 41z" class="fil2"/><path d="M6597 1619v501h-197V1057h197v484h445v-484h195v1063h-195v-501h-445zm1178 471c56 0 101-29 135-87 35-58 52-134 52-229 0-96-17-173-52-232-34-58-79-88-135-88s-101 30-135 89c-35 58-52 135-52 231 0 94 17 171 52 229 34 58 79 87 135 87zm21 53c-105 0-193-37-263-108-71-73-107-163-107-272 0-107 31-193 91-260s139-101 237-101c106 0 194 36 265 108s106 163 106 271c0 107-31 194-91 261-61 67-140 101-238 101zm575-23v-636h-148v-60h451v60h-148v636h-155zm461-571c0-52 8-86 25-102 16-16 51-23 105-23h332v60h-238c-28 0-46 4-56 12-9 7-14 22-14 43v176h253v68h-253v222c0 21 5 35 15 43 9 8 31 12 66 12h235v60h-365c-39 0-66-8-82-25-15-16-23-50-23-101v-445zm635-566h155v1022c0 21 4 35 14 43 9 8 32 12 67 12h39v60h-170c-39 0-66-8-82-25-15-16-23-50-23-101V983z" class="fil1"/><path d="M10536 1594v455h125c84 0 146-16 184-49 39-32 58-84 58-154 0-85-22-148-67-190-45-41-114-62-205-62h-95zm0-469v403h97c84 0 144-16 181-49 38-32 57-83 57-154 0-68-21-119-63-151-41-33-105-49-191-49h-81zm178 992h-374V1057h313c66 0 121 3 165 9 44 7 77 17 101 30 43 23 77 54 102 95 24 41 36 86 36 136 0 59-15 108-46 147-32 38-77 66-137 81 71 19 126 52 164 100 38 47 57 107 57 178 0 97-31 168-94 215-62 46-157 69-287 69zm865-29c56 0 101-29 135-87s51-134 51-229c0-96-17-173-51-231-34-59-79-88-135-88s-101 29-135 88c-35 59-52 136-52 231 0 94 17 171 52 229 34 58 79 87 135 87zm21 52c-105 0-192-36-263-108s-106-162-106-271c0-106 30-193 90-259 61-67 139-101 237-101 105 0 193 36 264 108s106 162 106 270c0 107-31 194-91 261-61 67-140 100-237 100zm903-658c-20-2-37-4-51-6-14-1-27-2-38-2-76 0-133 26-171 77-38 52-57 129-57 232 0 92 21 161 62 206 41 46 103 68 187 68h69l-1-575zm0-60l1-440h153v1135h-242c-116 0-210-32-280-98-71-65-106-151-106-258s32-191 98-254c65-62 154-93 267-93 13 0 28 1 45 2s38 3 64 6zm526 695h-154v-695h278c87 0 153 17 198 49 45 33 68 81 68 143 0 45-14 83-41 112s-64 46-112 52l180 339h-185l-166-347c56-1 98-13 124-35s39-57 39-105c0-51-13-89-39-114-25-25-65-37-119-37h-71v638zm722-695v450c0 56 13 99 39 130 27 30 65 46 114 46 51 0 88-16 110-48s33-85 33-158v-420h68v468c0 77-22 139-65 183-44 45-103 67-179 67-89 0-158-23-204-68-47-46-70-113-70-201v-449h154zm573 695v-596c0-39 10-68 30-89 20-20 48-31 86-31 34 0 60 9 80 26s37 47 50 88l110 359 102-377c9-32 24-57 44-72 21-16 48-24 81-24 39 0 68 11 88 33s31 54 31 96v587h-150v-581c0-9-1-15-3-19-3-4-6-6-12-7-5 0-9 2-12 5s-6 9-8 17l-153 546c-6 22-13 38-21 48-8 9-19 14-31 14s-22-4-31-13c-9-8-16-20-21-36l-164-551c-1-2-1-5-2-9-3-14-8-21-14-21-4 1-7 3-10 8-2 5-3 12-3 20v579h-67z" class="fil2"/><path d="M3968 3142v-291l154 221 155-221v291h46v-428l-201 286-201-286v428h47zm431-146c0 47 14 85 42 114 28 28 65 42 110 42 44 0 81-11 110-34v-50c-19 23-56 43-110 43-64 0-105-43-108-110h244v-19c0-42-13-77-38-105-26-29-59-43-100-43-43 0-80 15-108 44s-42 67-42 115v3zm47-33c2-25 13-45 32-62 20-18 44-26 71-26 25 0 47 9 64 26 18 18 27 38 27 62h-194zm340 179v-179c0-50 31-85 72-85 43 0 67 31 67 82v182h44v-179c0-50 31-85 74-85s68 32 68 82v182h44v-192c0-68-39-113-100-113-45 0-78 20-96 60-16-40-45-60-88-60-41 0-70 22-85 55v-50h-44v300h44zm478 0v-45c17 31 52 54 107 54 42 0 78-15 107-45 30-31 44-69 44-114s-14-83-44-113c-29-31-65-46-107-46-55 0-90 23-107 53v-159h-44v415h44zm107-32c-33 0-59-11-81-34-21-22-31-50-31-84s10-62 31-84c22-23 48-34 81-34 30 0 56 11 76 34 21 22 31 50 31 84s-10 62-31 84c-20 23-46 34-76 34zm193-114c0 47 14 85 42 114 28 28 65 42 110 42 44 0 81-11 110-34v-50c-19 23-56 43-110 43-64 0-105-43-108-110h244v-19c0-42-13-77-38-105-26-29-59-43-100-43-43 0-80 15-108 44s-42 67-42 115v3zm47-33c2-25 13-45 32-62 20-18 44-26 71-26 25 0 47 9 65 26 17 18 26 38 26 62h-194zm340 179v-175c0-50 34-84 81-84 12 0 22 1 30 3v-48c-5 0-12-1-18-1-44 0-77 22-93 55v-50h-44v300h44zm417-36c31 30 69 45 113 45 45 0 83-15 114-45 31-31 46-69 46-114s-15-83-46-113c-31-31-69-46-114-46-44 0-82 15-113 46-31 30-46 68-46 113s15 83 46 114zm31-198c22-23 49-34 82-34 34 0 61 11 83 34 22 22 33 50 33 84s-11 62-33 84c-22 23-49 34-83 34-33 0-60-11-82-34-22-22-33-50-33-84s11-62 33-84zm365 234v-259h56v-41h-56v-31c0-38 12-52 41-52 12 0 21 1 28 3v-42c-6-2-14-2-23-2-28 0-48 6-61 17-20 16-29 43-29 82v25h-49v41h49v259h44zm339-41c34 33 78 49 130 49 40 0 72-10 96-32s37-47 37-76c0-35-11-63-35-85-23-23-44-36-84-56-29-15-50-28-62-38-12-11-18-25-18-42 0-36 29-59 77-59 31 0 59 12 85 38v-52c-22-19-50-29-84-29-76 0-125 42-125 102 0 30 10 53 32 73 11 9 22 17 32 23 10 7 25 15 43 24 36 19 60 35 73 47 13 13 19 31 19 54 0 33-32 65-90 65-48 0-90-21-126-63v57zm372 156v-160c17 31 52 54 106 54 43 0 79-15 108-45 29-31 44-69 44-114s-15-83-44-113c-29-31-65-46-108-46-54 0-89 23-106 53v-44h-44v415h44zm106-147c-32 0-58-11-80-34-21-22-31-50-31-84s10-62 31-84c22-23 48-34 80-34 31 0 57 11 77 34 21 22 31 50 31 84s-10 62-31 84c-20 23-46 34-77 34zm194-114c0 47 14 85 42 114 28 28 65 42 110 42 44 0 81-11 110-34v-50c-19 23-56 43-110 43-64 0-105-43-108-110h244v-19c0-42-13-77-38-105-26-29-59-43-100-43-43 0-80 15-108 44s-42 67-42 115v3zm47-33c2-25 13-45 32-62 20-18 44-26 71-26 25 0 47 9 64 26 18 18 27 38 27 62h-194zm340 179v-146l130 146h55l-141-159 128-141h-52l-120 131v-246h-44v415h44zm290 0v-259h66v-41h-66v-115h-44v115h-38v41h38v259h44zm161 0v-175c0-50 34-84 81-84 12 0 22 1 30 3v-48c-5 0-12-1-19-1-43 0-76 22-92 55v-50h-44v300h44zm457 0v-199h230v199h47v-415h-47v173h-230v-173h-46v415h46zm422-53c43 41 94 61 154 61s111-20 153-61 63-93 63-154c0-62-21-113-63-154s-93-62-153-62-111 21-154 62c-41 41-62 92-62 154 0 61 21 113 62 154zm32-278c33-32 73-49 122-49s89 17 121 49c33 33 49 74 49 124 0 49-16 91-49 124-32 32-72 48-121 48s-89-16-122-48c-32-33-48-75-48-124 0-50 16-91 48-124zm526 331v-372h113v-43h-273v43h113v372h47zm424 0v-43h-192v-155h177v-43h-177v-131h188v-43h-234v415h238zm306 0v-43h-171v-372h-46v415h217zm758 0v-175c0-50 34-84 81-84 12 0 22 1 29 3v-48c-5 0-11-1-18-1-44 0-76 22-92 55v-50h-44v300h44zm177-36c31 30 69 45 113 45 45 0 83-15 113-45 31-31 47-69 47-114s-16-83-47-113c-30-31-68-46-113-46-44 0-82 15-113 46-31 30-46 68-46 113s15 83 46 114zm31-198c22-23 49-34 82-34 34 0 61 11 83 34 22 22 33 50 33 84s-11 62-33 84c-22 23-49 34-83 34-33 0-60-11-82-34-23-22-33-50-33-84s10-62 33-84zm293 118c0 78 50 123 124 123 76 0 128-46 128-127v-180h-44v179c0 57-32 87-82 87-51 0-82-30-82-86v-180h-44v184zm361 231v-160c17 31 52 54 106 54 42 0 79-15 108-45 29-31 44-69 44-114s-15-83-44-113c-29-31-66-46-108-46-54 0-89 23-106 53v-44h-45v415h45zm106-147c-32 0-59-11-80-34-21-22-32-50-32-84s11-62 32-84c21-23 48-34 80-34 31 0 57 11 77 34 21 22 31 50 31 84s-10 62-31 84c-20 23-46 34-77 34zm-1243-391c-60 0-111 21-154 62-41 41-62 92-62 154 0 61 21 113 62 154 43 41 94 61 154 61 65 0 119-22 160-68v-166h-173v43h127v106c-32 28-69 42-114 42-49 0-89-16-121-48-33-33-49-75-49-124 0-50 16-91 49-124 32-32 72-49 121-49 48 0 90 16 125 49v-53c-35-26-77-39-125-39z" class="fil1"/></g></g></svg>