<svg xmlns="http://www.w3.org/2000/svg" viewBox="0 0 57 37"><path d="M11.032 25.177c.5.93 1.14 1.657 1.917 2.18.77.52 1.6.782 2.5.782 1.21 0 2.2-.38 2.96-1.13.76-.75 1.14-1.71 1.14-2.89 0-1.88-1.7-3.5-5.1-4.86-.04-.01-.05-.02-.07-.02-1.816-.736-3.106-1.56-3.867-2.48-.767-.92-1.15-2.087-1.15-3.49 0-1.93.656-3.517 1.975-4.748 1.32-1.23 3.022-1.85 5.112-1.85 1.564 0 2.935.347 4.108 1.033 1.174.686 2.045 1.662 2.615 2.922l-1.5.98c-.37-1.034-.93-1.834-1.68-2.39-.75-.564-1.64-.84-2.67-.84-1.1 0-2 .345-2.706 1.04-.7.69-1.055 1.59-1.055 2.715 0 .884.29 1.633.873 2.26.572.62 1.66 1.26 3.25 1.92 2.503 1.056 4.16 2.06 4.955 3.025.804.967 1.204 2.204 1.204 3.707 0 2-.71 3.644-2.12 4.94-1.415 1.3-3.2 1.945-5.37 1.945-1.57 0-2.918-.294-4.05-.88-1.14-.583-2.127-1.49-2.96-2.723l1.683-1.16zm19.504-6.265V29.4H26.32V7.164h4.216v10.112h9.516V7.166h4.182V29.4h-4.182V18.91"/><path d="M28.59 0C44.28 0 57 8.283 57 18.5 57 28.718 44.28 37 28.59 37S.184 28.718.184 18.5C.184 8.283 12.904 0 28.59 0zm0 2.643c-14.23 0-25.77 7.1-25.77 15.857s11.54 15.857 25.77 15.857c14.234 0 25.773-7.1 25.773-15.857S42.823 2.643 28.59 2.643z"/></svg>